<svg width="294" height="436" viewBox="0 0 294 436" fill="none" xmlns="http://www.w3.org/2000/svg">
    <g filter="url(#filter0_d_6_37)">
        <path
            d="M18.2483 108.242C18.1122 102.626 22.6276 98 28.2454 98H265.755C271.372 98 275.888 102.626 275.752 108.242L268.237 418.242C268.105 423.669 263.668 428 258.239 428H35.7605C30.3321 428 25.895 423.669 25.7635 418.242L18.2483 108.242Z"
            fill="#D34D50" />
        <rect x="4" y="79" width="286" height="29" fill="#B34748" />
        <path d="M26 0H268L276 79H18L26 0Z" fill="#D34D50" />
        <rect x="53" y="20" width="188" height="39" rx="10" fill="#E5E4E5" />
        <path
            d="M235.199 299.735L227.056 286.071L209.547 295.143L217.681 308.779C218.161 309.575 218.509 310.397 218.722 311.243C219.1 312.784 219.052 314.39 218.582 315.909C218.337 316.679 217.987 317.416 217.54 318.103C216.695 319.452 215.5 320.581 214.065 321.388C212.507 322.238 210.731 322.68 208.926 322.667H162.841V304L122.775 332L162.841 360V341.333H208.926C211.711 341.333 214.455 340.988 217.049 340.316C222.06 339.027 226.618 336.528 230.261 333.073C232.044 331.403 233.587 329.527 234.829 327.539C238.773 321.311 239.979 313.903 238.194 306.865C237.528 304.379 236.522 301.982 235.199 299.735ZM81.3276 257.698L58.1898 300.817C56.9851 303.047 56.1059 305.417 55.5755 307.864C54.5995 312.444 54.8681 317.178 56.3568 321.637C57.8456 326.095 60.5072 330.135 64.0994 333.391C65.8823 335.021 67.8689 336.43 70.0592 337.619C74.6281 340.062 79.806 341.343 85.0737 341.333H102.743V322.667H85.0737C83.3191 322.678 81.5921 322.26 80.0655 321.453C78.6119 320.662 77.3958 319.542 76.5297 318.196C75.6503 316.878 75.1374 315.377 75.0373 313.828C74.9963 313.062 75.0569 312.294 75.2176 311.541C75.3979 310.726 75.6951 309.93 76.1091 309.152L98.706 267.04L114.722 275.655L108.732 229.334L62.6771 247.664L81.3276 257.698ZM208.896 275.664L214.886 229.334L198.479 238.154L170.003 190.395C168.015 186.998 165.281 184.03 161.979 181.684C158.678 179.337 154.883 177.666 150.841 176.778C148.307 176.228 145.71 175.968 143.109 176.003C137.812 176.094 132.636 177.489 128.104 180.044C123.267 182.782 119.368 186.748 116.866 191.478L109.534 205.142L127.453 213.495L134.785 199.822C135.239 198.982 135.793 198.229 136.448 197.563C137.64 196.348 139.179 195.474 140.885 195.043C142.616 194.586 144.444 194.551 146.194 194.94C147.531 195.231 148.787 195.786 149.875 196.566C150.964 197.347 151.86 198.336 152.504 199.467L181.131 247.496L162.841 257.334L208.896 275.664Z"
            fill="#E5E4E5" />
    </g>
    <defs>
        <filter id="filter0_d_6_37" x="0" y="0" width="294" height="436" filterUnits="userSpaceOnUse"
            color-interpolation-filters="sRGB">
            <feFlood flood-opacity="0" result="BackgroundImageFix" />
            <feColorMatrix in="SourceAlpha" type="matrix" values="0 0 0 0 0 0 0 0 0 0 0 0 0 0 0 0 0 0 127 0"
                result="hardAlpha" />
            <feOffset dy="4" />
            <feGaussianBlur stdDeviation="2" />
            <feComposite in2="hardAlpha" operator="out" />
            <feColorMatrix type="matrix" values="0 0 0 0 0 0 0 0 0 0 0 0 0 0 0 0 0 0 0.25 0" />
            <feBlend mode="normal" in2="BackgroundImageFix" result="effect1_dropShadow_6_37" />
            <feBlend mode="normal" in="SourceGraphic" in2="effect1_dropShadow_6_37" result="shape" />
        </filter>
    </defs>
</svg>